<?xml version="1.0" encoding="utf-8"?>
<!-- Generator: Adobe Illustrator 19.1.0, SVG Export Plug-In . SVG Version: 6.00 Build 0)  -->
<svg version="1.1" id="Layer_1" xmlns="http://www.w3.org/2000/svg" xmlns:xlink="http://www.w3.org/1999/xlink" x="0px" y="0px"
	 viewBox="0 0 409 165" style="enable-background:new 0 0 409 165;" xml:space="preserve">
<style type="text/css">
	.st0{fill:#FDB515;}
	.st1{fill:#FFFFFF;}
</style>
<path class="st0" d="M50.1,18.2c1.6,0.5,3.2,0.8,4.7,1.4c3.9,1.7,6.8,4.3,8.1,8.5c0.5,1.7,0.7,3.5-0.1,5.2c-1,2.2-2.4,3.8-4.9,4
	c-2.5,0.2-4.7-0.7-6-3c-0.7-1.3-1.2-2.7-1.8-4.1c-0.6-1.3-1.2-2.7-2-4c-2.1-3.3-8.2-2.9-10.3-0.1c-1.7,2.4-2.5,5-2.9,7.8
	c-0.9,6.8-0.8,13.7,0.1,20.5c1.3,8.9,2.4,17.9,3.7,26.9c0.2,1.6,0.7,4.9,0.7,4.9l-11.3,7.3c0,0-1-6.7-1.6-10.6
	c-0.9-6.6-1.8-13.2-2.7-19.8c-0.7-5.7-1.7-11.4-1.4-17.2C23,37.3,26,29.6,32.6,23.7c3.3-3,7.3-4.7,11.8-5.2c0.2,0,0.4-0.1,0.5-0.2
	C46.7,18.2,48.4,18.2,50.1,18.2z"/>
<g>
	<path class="st1" d="M116,70.1V76c2.5-4.2,6.6-6.3,12.2-6.3c4.6,0,8.3,1.5,11.2,4.6c2.9,3.1,4.3,7.2,4.3,12.5v23.5h-12.3V88.5
		c0-2.6-0.7-4.6-2.1-6c-1.4-1.4-3.3-2.1-5.7-2.1c-2.4,0-4.3,0.7-5.7,2.1c-1.4,1.4-2.1,3.4-2.1,6v21.8h-12.1V70.1H116z"/>
</g>
<g>
	<path class="st1" d="M167.3,99.9h4.4v10.4h-6.3c-4.5,0-8-1-10.5-3s-3.7-5.4-3.7-10.3V80.3h-3.7V70.1h3.7v-9.8h12.3v9.8h8.1v10.2
		h-8.1V97C163.5,98.9,164.8,99.9,167.3,99.9z"/>
</g>
<g>
	<path class="st1" d="M195.8,110.8c-5.9,0-10.7-1.9-14.4-5.7c-3.7-3.8-5.6-8.8-5.6-15c0-6.2,1.9-11.2,5.6-14.9
		c3.7-3.7,8.5-5.5,14.4-5.5s10.8,1.8,14.7,5.5c3.9,3.6,5.8,8.7,5.8,15.2c0,1.4-0.1,2.7-0.3,3.9h-27.6c0.2,1.8,1,3.2,2.4,4.4
		c1.3,1.1,2.8,1.7,4.4,1.7c1.6,0,2.7-0.2,3.5-0.5s1.3-0.6,1.7-0.9s0.8-0.8,1.4-1.5h13.3c-1.2,4-3.5,7.3-6.9,9.8
		C204.6,109.6,200.5,110.8,195.8,110.8z M201,82c-1.4-1.2-3.1-1.8-5.1-1.8s-3.6,0.6-5,1.8c-1.3,1.2-2.2,2.7-2.5,4.6h15
		C203.3,84.7,202.5,83.1,201,82z"/>
</g>
<g>
	<path class="st1" d="M225.6,105c-3.6-3.8-5.3-8.8-5.3-14.8s1.8-10.9,5.3-14.8c3.6-3.9,7.9-5.8,13-5.8s9,1.9,11.8,5.7V70h12.3v40
		c0,5.6-1.5,10.3-4.6,14c-1.5,1.9-3.6,3.4-6.3,4.5c-2.7,1.1-5.7,1.6-9.3,1.6c-6.1,0-11-1.2-14.6-3.7c-3.6-2.5-5.6-6.3-6.1-11.4h12.1
		c1.2,3,4,4.5,8.6,4.5c2.3,0,4.1-0.8,5.6-2.3s2.2-3.9,2.2-7.2v-5.6c-3,4.2-7,6.3-12,6.3C233.4,110.8,229.1,108.9,225.6,105z
		 M247.7,97.5c1.8-1.7,2.7-4.2,2.7-7.3c0-3.1-0.9-5.6-2.7-7.3s-3.8-2.6-6.1-2.6s-4.3,0.9-6.1,2.6c-1.8,1.7-2.7,4.2-2.7,7.3
		c0,3.1,0.9,5.6,2.7,7.3s3.8,2.6,6.1,2.6S245.9,99.3,247.7,97.5z"/>
</g>
<g>
	<path class="st1" d="M281.5,70.1v7.5c2.9-5.3,6.7-7.9,11.5-7.9v12.5h-3c-2.8,0-5,0.7-6.4,2s-2.1,3.7-2.1,7.1v19h-12.3V70.1H281.5z"
		/>
</g>
<g>
	<path class="st1" d="M310.9,65.6c-1.4,1.4-3.1,2.1-5.1,2.1s-3.7-0.7-5.1-2.1s-2.1-3.1-2.1-5.1s0.7-3.8,2.1-5.1
		c1.4-1.4,3.1-2.1,5.1-2.1s3.7,0.7,5.1,2.1c1.4,1.4,2.1,3.1,2.1,5.1C313,62.5,312.3,64.2,310.9,65.6z M299.7,110.3V70.1H312v40.2
		L299.7,110.3z"/>
</g>
<g>
	<path class="st1" d="M340.7,70.1v10.2h-5.1v30h-12.3v-30h-3.7V70.1h3.7v-1.5c0-5.1,1.4-8.8,4.1-11.2c2.7-2.4,7-3.5,12.8-3.5v10.4
		c-1.6,0-2.8,0.3-3.5,0.9c-0.7,0.6-1,1.7-1,3.3V70L340.7,70.1L340.7,70.1z"/>
</g>
<g>
	<path class="st1" d="M359.7,109.5l-15.6-39.4h14l8.9,26.3l9.8-26.3h12.9l-25.6,59.3h-12.9L359.7,109.5z"/>
</g>
<g>
	<path class="st1" d="M94.9,65.6c-1.4,1.4-3.1,2.1-5.1,2.1s-3.7-0.7-5.1-2.1s-2.1-3.1-2.1-5.1s0.7-3.8,2.1-5.1
		c1.4-1.4,3.1-2.1,5.1-2.1s3.7,0.7,5.1,2.1c1.4,1.4,2.1,3.1,2.1,5.1C97,62.5,96.3,64.2,94.9,65.6z M83.7,110.3V70.1H96v40.2
		L83.7,110.3z"/>
</g>
<path class="st1" d="M54.2,76.9c0,0,1.7,9.4,2.5,15.5c0.9,7,1.9,14,2.3,21c0.5,9.1-1.7,17.5-7.6,24.7c-3.7,4.4-8.5,7-14.2,7.7
	c-0.2,0-0.4,0.1-0.6,0.2c-1.7,0-3.4,0-5.2,0c-1.6-0.5-3.2-0.8-4.7-1.4c-4.2-1.8-7.2-4.7-8.3-9.3c-0.4-1.9-0.2-3.7,0.9-5.4
	c2.6-3.9,8.1-3.5,10.3,0.2c0.8,1.3,1.3,2.8,1.8,4.2c0.7,1.8,1.4,3.6,3,4.9c2.1,1.7,6,1.7,8-0.2c2.1-1.9,3-4.4,3.5-7
	c1.1-5.1,1.2-10.3,0.9-15.4c-0.4-8.1-1.5-16-2.6-24c-0.4-2.8-1.2-8.5-1.2-8.5L54.2,76.9z"/>
</svg>
